:SAMPLES-PER-SECOND 30
:FULLY-SPECIFIED
:DEGREES
94
root  23.4341 19.7414 1.31882 -67.616 84.9167 -114.163
RightUpLeg  -56.7735 2.89183 3.66217
RightLeg  124.474 2.55334 12.8677
RightFoot  -23.4587 -0.453654 -5.09856
RightToes  1.74622e-010 -3.18055e-015 8.94531e-016
Spine  50.0957 -3.29301 4.86629
Spine1  -14.2986 -1.09326 0.450857
HEad  -64.0369 6.40372 3.3361
LeftShoulder1  0 -2.69403e-036 -1.28585e-037
LeftArm  -8.29358 -57.264 -70.5081
LeftForeArm  15.0976 -10.6349 7.04647
LeftHand  -1.69135 0.630446 27.7734
RightShoulder  -2.48481e-017 0 -8.08114e-019
RightArm  -4.63212 27.4958 100.213
RightForeArm  27.3062 1.51924 2.17363
RightHand  9.6625 -22.0024 -47.9203
LeftUpLeg  -31.8585 -12.6854 6.58139
LeftLeg  90.0068 -13.0798 -25.6735
LeftFoot  7.26891 0.909942 -4.86763
LeftToes  4.94765e-010 2.02697e-011 4.00889e-011
95
root  24.258 19.6052 1.31403 -91.9336 84.0202 -136.883
RightUpLeg  -62.5304 2.05588 4.52582
RightLeg  128.854 0.660989 13.3557
RightFoot  -25.6287 -0.563208 -5.21405
RightToes  1.74622e-010 -3.18055e-015 8.94531e-016
Spine  51.5526 -3.93702 5.03659
Spine1  -14.3587 -1.75753 4.08937
HEad  -63.3388 6.89237 2.25971
LeftShoulder1  0 -2.69403e-036 -1.28585e-037
LeftArm  -6.42102 -61.6849 -69.484
LeftForeArm  10.2879 -1.84538 5.6629
LeftHand  -1.09441 1.26795 22.1536
RightShoulder  -2.48481e-017 0 -8.08114e-019
RightArm  -4.0299 25.6109 100.669
RightForeArm  28.9055 1.50947 3.00562
RightHand  9.98114 -22.2111 -48.9627
LeftUpLeg  -27.6728 -15.8372 7.66842
LeftLeg  87.9246 -14.1362 -27.3038
LeftFoot  5.56259 0.946346 -5.56259
LeftToes  4.94765e-010 2.02697e-011 4.00889e-011
96
root  25.1837 19.4605 1.26351 -106.422 82.362 -149.848
RightUpLeg  -67.7286 1.21195 6.15355
RightLeg  131.189 1.03396 11.9923
RightFoot  -27.3788 -0.535183 -4.34961
RightToes  1.74622e-010 -3.18055e-015 8.94531e-016
Spine  52.9848 -4.53188 5.15645
Spine1  -14.3853 -2.41564 8.03637
HEad  -63.0063 7.76618 1.07292
LeftShoulder1  0 -2.69403e-036 -1.28585e-037
LeftArm  -5.91696 -63.1099 -69.5792
LeftForeArm  7.30258 1.54454 5.50225
LeftHand  -0.896608 1.65212 20.9647
RightShoulder  -2.48481e-017 0 -8.08114e-019
RightArm  -2.78546 23.66 101.262
RightForeArm  30.1453 1.79947 3.72092
RightHand  10.3132 -22.443 -49.9613
LeftUpLeg  -23.2388 -18.197 8.36828
LeftLeg  84.9369 -15.3565 -26.4277
LeftFoot  3.92591 0.771022 -4.98082
LeftToes  4.94765e-010 2.02697e-011 4.00889e-011
97
root  26.1992 19.2861 1.17378 -113.737 80.3031 -155.808
RightUpLeg  -71.3557 0.462402 8.59062
RightLeg  131.43 2.79898 10.0195
RightFoot  -27.5901 -0.406376 -3.27188
RightToes  1.74622e-010 -3.18055e-015 8.94531e-016
Spine  53.7359 -4.98158 5.86926
Spine1  -13.5045 -2.71365 11.3707
HEad  -63.122 7.9715 -0.0220474
LeftShoulder1  0 -2.69403e-036 -1.28585e-037
LeftArm  -6.18353 -62.113 -71.1058
LeftForeArm  5.78347 1.66143 5.81492
LeftHand  -1.20654 1.53627 25.6466
RightShoulder  -2.48481e-017 0 -8.08114e-019
RightArm  -0.905469 21.7744 100.83
RightForeArm  29.959 2.51305 4.30318
RightHand  10.583 -22.6617 -50.647
LeftUpLeg  -18.7878 -19.5818 9.01987
LeftLeg  81.1752 -16.4799 -24.0987
LeftFoot  4.45336 0.53229 -3.30366
LeftToes  4.94765e-010 2.02697e-011 4.00889e-011
98
root  27.2374 19.0021 1.07411 -116.397 78.2294 -157.573
RightUpLeg  -73.0695 0.229084 11.0311
RightLeg  131.39 4.27561 8.44306
RightFoot  -24.5262 -0.327303 -3.35769
RightToes  1.74622e-010 -3.18055e-015 8.94531e-016
Spine  53.2586 -5.31054 7.54424
Spine1  -11.9033 -2.43148 12.9648
HEad  -62.8761 7.05193 -0.898897
LeftShoulder1  0 -2.69403e-036 -1.28585e-037
LeftArm  -5.7474 -59.7795 -73.6624
LeftForeArm  5.2746 1.46057 5.11933
LeftHand  -1.76569 1.00475 31.1497
RightShoulder  -2.48481e-017 0 -8.08114e-019
RightArm  1.56039 19.6199 98.9716
RightForeArm  28.1156 3.53202 4.76633
RightHand  10.7557 -22.8083 -51.0518
LeftUpLeg  -14.7992 -20.0117 9.87121
LeftLeg  77.3526 -17.148 -21.0911
LeftFoot  6.30624 0.330128 -1.79221
LeftToes  4.94765e-010 2.02697e-011 4.00889e-011
99
root  28.258 18.6072 1.00238 -117.687 76.5308 -158.839
RightUpLeg  -73.6697 0.285047 12.7557
RightLeg  132.306 5.00147 7.45518
RightFoot  -18.5384 -0.198793 -4.33151
RightToes  1.74622e-010 -3.18055e-015 8.94531e-016
Spine  51.3447 -5.40855 9.5241
Spine1  -10.1709 -1.83028 13.2101
HEad  -61.8792 5.83907 -1.55484
LeftShoulder1  0 -2.69403e-036 -1.28585e-037
LeftArm  -4.71232 -57.264 -77.0346
LeftForeArm  5.93096 1.09991 3.94479
LeftHand  -2.13855 0.545475 33.5811
RightShoulder  -2.48481e-017 0 -8.08114e-019
RightArm  4.58293 16.9895 96.3474
RightForeArm  25.2868 4.80692 5.00364
RightHand  10.8174 -22.8379 -51.2672
LeftUpLeg  -11.9724 -19.6394 10.7684
LeftLeg  73.6088 -17.1905 -17.3275
LeftFoot  8.4228 0.101732 -0.396675
LeftToes  4.94765e-010 2.02697e-011 4.00889e-011
100
root  29.2914 18.2348 0.996918 -119.952 75.2862 -161.936
RightUpLeg  -73.3003 -0.0205974 13.9086
RightLeg  132.754 5.64309 6.69644
RightFoot  -12.4129 0.0276757 -3.79083
RightToes  1.74622e-010 -3.18055e-015 8.94531e-016
Spine  48.5602 -4.97716 10.5941
Spine1  -8.91665 -1.37132 13.9212
HEad  -60.4193 5.15727 -2.06761
LeftShoulder1  0 -2.69403e-036 -1.28585e-037
LeftArm  -4.44459 -54.7601 -81.2001
LeftForeArm  7.96607 0.872311 3.28844
LeftHand  -2.35036 0.256495 34.6354
RightShoulder  -2.48481e-017 0 -8.08114e-019
RightArm  6.78356 13.6317 93.8619
RightForeArm  23.2883 5.85176 4.99295
RightHand  10.706 -22.727 -51.0618
LeftUpLeg  -10.4478 -18.5404 11.6454
LeftLeg  69.4941 -16.8763 -13.505
LeftFoot  12.0202 -0.336772 1.6542
LeftToes  4.94765e-010 2.02697e-011 4.00889e-011
101
root  30.3869 17.9972 1.06532 -121.578 74.248 -164.747
RightUpLeg  -71.7589 -0.218176 15.297
RightLeg  131.122 6.69908 5.86329
RightFoot  -7.30236 0.103044 -1.97822
RightToes  1.74622e-010 -3.18055e-015 8.94531e-016
Spine  45.9473 -3.88689 10.6441
Spine1  -8.54928 -0.836598 15.807
HEad  -58.8347 4.43272 -2.26457
LeftShoulder1  0 -2.69403e-036 -1.28585e-037
LeftArm  -5.20325 -51.7728 -85.8612
LeftForeArm  11.0869 0.795244 3.21449
LeftHand  -2.59383 0.069069 36.6093
RightShoulder  -2.48481e-017 0 -8.08114e-019
RightArm  7.6388 9.076 91.5383
RightForeArm  22.0824 6.47947 4.92159
RightHand  10.2502 -22.3761 -49.8495
LeftUpLeg  -9.35875 -16.3427 13.0464
LeftLeg  64.6132 -16.7153 -10.8031
LeftFoot  17.5372 -1.07381 4.07288
LeftToes  4.94765e-010 2.02697e-011 4.00889e-011
